<svg width="136" height="43" viewBox="0 0 136 43" fill="none" xmlns="http://www.w3.org/2000/svg">
<path d="M71.6347 10.8116C71.6347 12.36 70.4168 13.6073 68.9049 13.6073C67.393 13.6073 66.1751 12.36 66.1751 10.8116C66.1751 9.26315 67.351 8.01581 68.9049 8.01581C70.4588 8.05882 71.6347 9.30617 71.6347 10.8116ZM60.3795 16.4461C60.3795 16.7042 60.3795 17.1343 60.3795 17.1343C60.3795 17.1343 59.0776 15.4138 56.3058 15.4138C51.7281 15.4138 48.1584 18.9838 48.1584 23.9302C48.1584 28.8335 51.6861 32.4465 56.3058 32.4465C59.1196 32.4465 60.3795 30.683 60.3795 30.683V31.4142C60.3795 31.7583 60.6315 32.0164 60.9675 32.0164H64.3692V15.844C64.3692 15.844 61.2614 15.844 60.9675 15.844C60.6315 15.844 60.3795 16.145 60.3795 16.4461ZM60.3795 26.812C59.7495 27.7582 58.4896 28.5754 56.9777 28.5754C54.2899 28.5754 52.2321 26.855 52.2321 23.9302C52.2321 21.0054 54.2899 19.2849 56.9777 19.2849C58.4476 19.2849 59.7915 20.1451 60.3795 21.0484V26.812ZM66.889 15.844H70.9208V32.0164H66.889V15.844ZM127.113 15.4138C124.341 15.4138 123.039 17.1343 123.039 17.1343V8.05882H119.007V32.0164C119.007 32.0164 122.115 32.0164 122.409 32.0164C122.745 32.0164 122.997 31.7153 122.997 31.4142V30.683C122.997 30.683 124.299 32.4465 127.071 32.4465C131.648 32.4465 135.218 28.8335 135.218 23.9302C135.218 19.0268 131.648 15.4138 127.113 15.4138ZM126.441 28.5324C124.887 28.5324 123.669 27.7152 123.039 26.7689V21.0054C123.669 20.1451 125.013 19.2419 126.441 19.2419C129.129 19.2419 131.186 20.9624 131.186 23.8872C131.186 26.812 129.129 28.5324 126.441 28.5324ZM116.908 22.4248V32.0594H112.876V22.8979C112.876 20.2312 112.036 19.1559 109.768 19.1559C108.55 19.1559 107.29 19.801 106.492 20.7473V32.0164H102.461V15.844H105.652C105.988 15.844 106.24 16.145 106.24 16.4461V17.1343C107.416 15.887 108.97 15.4138 110.524 15.4138C112.288 15.4138 113.758 15.93 114.934 16.9623C116.362 18.1666 116.908 19.715 116.908 22.4248ZM92.6752 15.4138C89.9034 15.4138 88.6015 17.1343 88.6015 17.1343V8.05882H84.5698V32.0164C84.5698 32.0164 87.6776 32.0164 87.9715 32.0164C88.3075 32.0164 88.5595 31.7153 88.5595 31.4142V30.683C88.5595 30.683 89.8614 32.4465 92.6332 32.4465C97.2109 32.4465 100.781 28.8335 100.781 23.9302C100.823 19.0268 97.2529 15.4138 92.6752 15.4138ZM92.0033 28.5324C90.4494 28.5324 89.2315 27.7152 88.6015 26.7689V21.0054C89.2315 20.1451 90.5754 19.2419 92.0033 19.2419C94.6911 19.2419 96.7489 20.9624 96.7489 23.8872C96.7489 26.812 94.6911 28.5324 92.0033 28.5324ZM81.084 15.4138C82.3019 15.4138 82.9319 15.6289 82.9319 15.6289V19.4569C82.9319 19.4569 79.5721 18.2956 77.4723 20.7473V32.0594H73.4406V15.844C73.4406 15.844 76.5484 15.844 76.8423 15.844C77.1783 15.844 77.4303 16.145 77.4303 16.4461V17.1343C78.1862 16.2311 79.8241 15.4138 81.084 15.4138ZM39.213 30.554C39.003 30.0378 38.793 29.4787 38.583 29.0056C38.2471 28.2313 37.9111 27.5001 37.6171 26.812L37.5751 26.7689C34.6773 20.3172 31.5695 13.7794 28.2938 7.32762L28.1678 7.06955C27.8318 6.42438 27.4958 5.73619 27.1599 5.048C26.7399 4.27379 26.3199 3.45657 25.648 2.68235C24.3041 0.961884 22.3722 0.015625 20.3143 0.015625C18.2145 0.015625 16.3246 0.961884 14.9387 2.59633C14.3088 3.37054 13.8468 4.18777 13.4268 4.96198C13.0909 5.65017 12.7549 6.33835 12.4189 6.98353L12.2929 7.2416C9.05914 13.6934 5.90936 20.2312 3.01157 26.6829L2.96957 26.7689C2.67559 27.4571 2.33962 28.1883 2.00364 28.9625C1.79366 29.4357 1.58367 29.9518 1.37368 30.511C0.827723 32.1024 0.659735 33.6078 0.86972 35.1562C1.33169 38.3821 3.43154 41.0919 6.32933 42.2962C7.42126 42.7693 8.55518 42.9844 9.73109 42.9844C10.0671 42.9844 10.487 42.9414 10.823 42.8983C12.2089 42.7263 13.6368 42.2532 15.0227 41.436C16.7446 40.4467 18.3825 39.0273 20.2303 36.9627C22.0782 39.0273 23.7581 40.4467 25.438 41.436C26.8239 42.2532 28.2518 42.7263 29.6377 42.8983C29.9737 42.9414 30.3936 42.9844 30.7296 42.9844C31.9055 42.9844 33.0814 42.7693 34.1314 42.2962C37.0712 41.0919 39.129 38.3391 39.591 35.1562C39.927 33.6508 39.759 32.1454 39.213 30.554ZM20.2723 32.7906C18.0045 29.8658 16.5346 27.113 16.0306 24.7904C15.8207 23.8011 15.7787 22.9409 15.9047 22.1667C15.9887 21.4785 16.2406 20.8763 16.5766 20.3602C17.3746 19.1989 18.7185 18.4677 20.2723 18.4677C21.8262 18.4677 23.2121 19.1559 23.9681 20.3602C24.3041 20.8763 24.556 21.4785 24.64 22.1667C24.766 22.9409 24.724 23.8441 24.514 24.7904C24.0101 27.07 22.5402 29.8228 20.2723 32.7906ZM37.0292 34.8121C36.7352 37.0488 35.2653 38.9843 33.2074 39.8445C32.1995 40.2746 31.1076 40.4037 30.0157 40.2746C28.9657 40.1456 27.9158 39.8015 26.8239 39.1563C25.312 38.2961 23.8001 36.9627 22.0362 34.9842C24.808 31.5002 26.4879 28.3174 27.1179 25.4786C27.4118 24.1452 27.4538 22.9409 27.3278 21.8226C27.1599 20.7473 26.7819 19.758 26.1939 18.8978C24.892 16.9623 22.7082 15.844 20.2723 15.844C17.8365 15.844 15.6527 17.0053 14.3508 18.8978C13.7628 19.758 13.3848 20.7473 13.2168 21.8226C13.0489 22.9409 13.0909 24.1882 13.4268 25.4786C14.0568 28.3174 15.7787 31.5432 18.5085 35.0272C16.7866 37.0057 15.2327 38.3391 13.7208 39.1993C12.6289 39.8445 11.579 40.1886 10.529 40.3176C9.39512 40.4467 8.30319 40.2746 7.33726 39.8875C5.27941 39.0273 3.80951 37.0918 3.51553 34.8552C3.38954 33.7799 3.47354 32.7046 3.89351 31.5002C4.0195 31.0701 4.22948 30.64 4.43947 30.1239C4.73345 29.4357 5.06942 28.7045 5.4054 27.9733L5.4474 27.8872C8.34519 21.4785 11.453 14.9407 14.6867 8.57497L14.8127 8.31689C15.1487 7.67172 15.4847 6.98353 15.8207 6.33835C16.1566 5.65017 16.5346 5.00499 16.9966 4.44584C17.8785 3.41355 19.0544 2.8544 20.3563 2.8544C21.6582 2.8544 22.8342 3.41355 23.7161 4.44584C24.1781 5.00499 24.556 5.65017 24.892 6.33835C25.228 6.98353 25.564 7.67172 25.8999 8.31689L26.0259 8.57497C29.2177 14.9837 32.3255 21.5215 35.2233 27.9303V27.9733C35.5593 28.6615 35.8532 29.4357 36.1892 30.1239C36.3992 30.64 36.6092 31.0701 36.7352 31.5002C37.0712 32.6185 37.1971 33.6938 37.0292 34.8121Z" fill="#FF5A5F"/>
</svg>
