<svg width="87" height="83" viewBox="0 0 87 83" fill="none" xmlns="http://www.w3.org/2000/svg">
<mask id="mask0_221_1045" style="mask-type:luminance" maskUnits="userSpaceOnUse" x="0" y="0" width="87" height="83">
<path d="M87 0H0V83H87V0Z" fill="white"/>
</mask>
<g mask="url(#mask0_221_1045)">
<path fill-rule="evenodd" clip-rule="evenodd" d="M57.4792 68.2829C53.2579 74.9951 48.1532 78.02 43.5 78.02C38.8466 78.02 33.742 74.9951 29.5206 68.2829C25.3616 61.6698 22.62 52.2124 22.62 41.5C22.62 30.7875 25.3616 21.3303 29.5206 14.7173C33.742 8.00514 38.8466 4.98 43.5 4.98C48.1532 4.98 53.2579 8.00514 57.4792 14.7173C61.6382 21.3303 64.38 30.7875 64.38 41.5C64.38 52.2124 61.6382 61.6698 57.4792 68.2829ZM87 41.5C87 18.5802 67.5242 0 43.5 0C19.4756 0 0 18.5802 0 41.5C0 64.4196 19.4756 83 43.5 83C67.5242 83 87 64.4196 87 41.5ZM5.22 41.5C5.22 56.4109 14.5867 69.2345 28.0128 74.9075C21.5752 67.3499 17.4 55.2004 17.4 41.5C17.4 27.7997 21.5752 15.65 28.0128 8.09229C14.5867 13.7656 5.22 26.5892 5.22 41.5ZM81.78 41.5C81.78 56.4109 72.4131 69.2345 58.9873 74.9075C65.4249 67.3499 69.6 55.2004 69.6 41.5C69.6 27.7997 65.4249 15.65 58.9873 8.09229C72.4131 13.7656 81.78 26.5892 81.78 41.5ZM43.5 46.065C46.1426 46.065 48.285 44.0211 48.285 41.5C48.285 38.9788 46.1426 36.935 43.5 36.935C40.8573 36.935 38.715 38.9788 38.715 41.5C38.715 44.0211 40.8573 46.065 43.5 46.065Z" fill="white"/>
</g>
</svg>
